<?xml version="1.0" encoding="UTF-8"?>
<svg xmlns="http://www.w3.org/2000/svg" id="Layer_1" data-name="Layer 1" viewBox="0 0 500 161.35">
  <defs>
    <style>
      .cls-1 {
        fill: none;
        stroke: #231f20;
        stroke-miterlimit: 10;
        stroke-width: 1.5px;
      }

      .cls-2 {
        letter-spacing: .05em;
      }

      .cls-3 {
        letter-spacing: .05em;
      }

      .cls-4 {
        letter-spacing: .02em;
      }

      .cls-5 {
        letter-spacing: 0em;
      }

      .cls-6 {
        letter-spacing: .03em;
      }

      .cls-7 {
        letter-spacing: .03em;
      }

      .cls-8 {
        letter-spacing: 0em;
      }

      .cls-9 {
        font-family: AreaNormal-Bold, 'Area Normal';
        font-size: 21.61px;
        font-weight: 700;
      }

      .cls-10 {
        stroke-width: 0px;
      }

      .cls-11 {
        letter-spacing: .04em;
      }

      .cls-12 {
        font-family: MillerBanner-Roman, 'Miller Banner';
        font-size: 52.94px;
      }
    </style>
  </defs>
  <path class="cls-10" d="m37.75,110.29c.28,2.46.8,6.1,1.81,10.43,2.13,9.22,3.4,14.67,7.23,18.74,6.35,6.74,16.72,6.46,20.57,6.15v.77H13.53v-.77c3.65-.38,14.99-3.65,17.3-5,4.42-2.5,6.92-10.19,6.92-26.53v-3.8Zm2.17,6.35-.06-3.52-4.33-85.69c-1.16-1.18-2.46-2.36-3.94-3.5-7.61-5.88-15.88-7.68-21.34-8.27v-.58h34.99l87.85,108.03V47.19c0-13.46-2.31-23.26-6.54-25.76-3.65-2.31-15.76-5.38-20.57-5.57v-.77h53.06v.77c-3.46,0-14.8,3.27-17.11,4.61-5.57,3.27-6.73,13.65-6.73,25.57v102.07h-1.35c-31.33-38.57-62.67-77.15-94-115.72"></path>
  <g>
    <text class="cls-12" transform="translate(201.89 83.91)">
      <tspan class="cls-7" x="0" y="0">N</tspan>
      <tspan class="cls-8" x="42.67" y="0">A</tspan>
      <tspan class="cls-3" x="78.4" y="0">VIG</tspan>
      <tspan class="cls-5" x="183.11" y="0">A</tspan>
      <tspan class="cls-3" x="219.63" y="0">TE</tspan>
    </text>
    <text class="cls-9" transform="translate(201.89 117.4)">
      <tspan class="cls-2" x="0" y="0">CONN</tspan>
      <tspan class="cls-11" x="76.55" y="0">E</tspan>
      <tspan class="cls-6" x="91.46" y="0">C</tspan>
      <tspan class="cls-4" x="110.24" y="0">T</tspan>
    </text>
  </g>
  <line class="cls-1" x1="187.35" y1="47.07" x2="187.35" y2="117.15"></line>
</svg>
