<?xml version="1.0" encoding="UTF-8"?>
<svg xmlns="http://www.w3.org/2000/svg" width="31.821" height="26.264" viewBox="0 0 31.821 26.264">
  <path id="suppliers_icon" data-name="suppliers icon" d="M69.036,77.512V69.683c-.1.086-.176.142-.241.207-.779.777-1.548,1.563-2.341,2.324a.959.959,0,0,1-.577.239c-.687.029-1.378,0-2.065.021a1.105,1.105,0,0,0-.518.211,1.6,1.6,0,0,0-.67,1.53c.033,3.876.016,7.753.016,11.629A1.967,1.967,0,0,1,61.421,87.9a2.107,2.107,0,0,1-2.438-.539.582.582,0,0,0-.1-.064,2.1,2.1,0,0,1-2.125.716,1.91,1.91,0,0,1-1.585-1.909c-.008-1.7,0-3.4,0-5.1v-.378l-.247-.041a2.172,2.172,0,0,1-1.992-2.315c-.019-2.077-.006-4.155.059-6.23a2.854,2.854,0,0,1,2.763-2.656c.809-.021,1.619,0,2.441-.029a3.857,3.857,0,0,1-2.4-1.65,3.563,3.563,0,0,1-.48-2.871,3.656,3.656,0,0,1,7.122.115,3.585,3.585,0,0,1-.558,2.827,3.966,3.966,0,0,1-2.368,1.6c1.743,0,3.486,0,5.229-.008A.6.6,0,0,0,65.1,69.2c.644-.628,1.275-1.269,1.913-1.9a1.548,1.548,0,0,1,2.582.273.477.477,0,0,0,.351.149c1.744.009,3.488.006,5.232.006q1.933,0,3.865,0c.446,0,.546.1.546.552q0,4.4,0,8.8v.44h.386q1.966,0,3.932,0c.483,0,.585.1.585.585q0,4.682,0,9.363c0,.493-.107.6-.611.6H64.759c-.51,0-.6-.088-.6-.6q0-4.682,0-9.363c0-.5.084-.579.582-.58h4.292ZM55.173,79.837V79.45q0-3.449,0-6.9c0-.273.048-.5.367-.529.252-.025.384.17.388.538,0,.078,0,.155,0,.233q0,6.5,0,13c0,.122,0,.245.005.366a1.194,1.194,0,0,0,1.107,1.135,1.232,1.232,0,0,0,1.479-1.323q0-3.832,0-7.664c0-.111-.032-.253.023-.325.1-.126.244-.28.379-.289.109-.007.256.165.339.29.053.079.027.215.027.326q0,2.132,0,4.265c0,1.188-.009,2.377.008,3.565a1.145,1.145,0,0,0,1.042,1.148,1.237,1.237,0,0,0,1.454-.774,2.274,2.274,0,0,0,.079-.689c0-3.787.047-7.576-.025-11.362a2.617,2.617,0,0,1,1.1-2.5,1.221,1.221,0,0,1,.583-.234c.71-.028,1.422,0,2.132-.018a.6.6,0,0,0,.377-.146q1.355-1.33,2.686-2.685a1.025,1.025,0,0,0,.248-.42.776.776,0,0,0-1.311-.723c-.7.685-1.392,1.372-2.072,2.075a1,1,0,0,1-.786.332q-4.415-.018-8.83-.005a2.177,2.177,0,0,0-2.246,2.188c-.01.322-.006.644-.007.966-.006,1.7-.032,3.4-.006,5.1C53.726,79.276,54.235,79.749,55.173,79.837Zm9.75,7.445c.138.006.246.016.356.016,2.764,0,5.529,0,8.293.008.319,0,.381-.1.38-.4-.01-2.753-.006-5.506-.006-8.26v-.359H64.924v8.99Zm13.9-9.789v-9H69.837v9Zm4.89.8H74.726v8.986h8.983ZM58.857,68.612a2.895,2.895,0,1,0-2.887-2.9,2.9,2.9,0,0,0,2.887,2.9Z" transform="translate(-52.802 -61.938)" stroke="#000" stroke-width="0.25"></path>
</svg>
